<svg width="379" height="254" viewBox="0 0 379 254" fill="none" xmlns="http://www.w3.org/2000/svg">
<path d="M368 252H11V245H368V252Z" fill="#E8E8E8"/>
<path d="M38.6822 106.598L38.3827 107.306L367.414 246.311L367.713 245.603L38.6822 106.598Z" fill="#581B98"/>
<path d="M367.824 106.534H10.5844V107.303H367.824V106.534Z" fill="#3F3D56"/>
<path d="M319.372 123.246C319.421 139.503 316.263 155.61 310.079 170.647C303.895 185.683 294.805 199.355 283.329 210.881C282.064 212.152 280.77 213.395 279.449 214.607C277.857 216.075 276.224 217.498 274.55 218.876C274.231 219.141 273.911 219.402 273.588 219.659C266.975 225.013 259.814 229.653 252.223 233.501C251.773 233.728 251.323 233.955 250.87 234.177C250.151 234.531 249.424 234.877 248.697 235.215C221.793 247.722 191.197 249.796 162.848 241.035C113.215 225.645 77.1102 178.733 77.1102 123.246C77.1102 55.2428 131.342 0.117157 198.241 0.117157C265.14 0.117157 319.372 55.2428 319.372 123.246Z" fill="#27AE60"/>
<path d="M225.211 97.4164L225.307 97.4127L224.928 96.5806C224.502 95.4019 223.981 94.2596 223.371 93.1648L212.244 68.7579C211.889 67.9789 211.314 67.3205 210.589 66.8633C209.865 66.4062 209.023 66.1703 208.166 66.1846L194.075 66.4191C193.164 66.4342 192.28 66.7317 191.545 67.2702C190.811 67.8088 190.261 68.562 189.974 69.4258L181.115 96.0062C180.823 96.7506 180.571 97.5095 180.357 98.2799L180.057 99.1824L180.127 99.1796C179.306 102.685 179.307 106.332 180.129 109.837C180.951 113.342 182.572 116.611 184.866 119.387C187.16 122.163 190.064 124.373 193.353 125.843C196.642 127.314 200.227 128.006 203.828 127.865C207.428 127.724 210.948 126.754 214.112 125.031C217.275 123.309 219.998 120.879 222.068 117.932C224.137 114.985 225.498 111.6 226.043 108.042C226.588 104.483 226.303 100.847 225.211 97.4164H225.211Z" fill="#FAEE1C"/>
<path d="M198.95 72.3879L194.516 96.6041L195.016 96.6955L199.45 72.4793L198.95 72.3879Z" fill="#6C63FF"/>
<path d="M204.278 72.2988L203.781 72.4067L209.016 96.4629L209.513 96.355L204.278 72.2988Z" fill="#6C63FF"/>
<path d="M192.539 54.5L210.595 54.1995C210.73 54.1972 210.861 54.2486 210.958 54.3423C211.055 54.436 211.11 54.5644 211.113 54.6992C211.115 54.8339 211.063 54.9641 210.97 55.061C210.876 55.1578 210.747 55.2135 210.612 55.2158L192.556 55.5163C192.49 55.5174 192.423 55.5054 192.361 55.4808C192.299 55.4563 192.242 55.4198 192.194 55.3734C192.146 55.327 192.108 55.2716 192.081 55.2104C192.055 55.1492 192.04 55.0833 192.039 55.0166C192.038 54.9499 192.05 54.8836 192.075 54.8215C192.099 54.7594 192.136 54.7028 192.182 54.6548C192.229 54.6068 192.284 54.5685 192.345 54.5419C192.407 54.5154 192.473 54.5011 192.539 54.5Z" fill="#3F3D56"/>
<path d="M192.73 58.3089L210.786 58.0084C210.921 58.0062 211.051 58.0576 211.148 58.1513C211.245 58.245 211.301 58.3734 211.303 58.5081C211.306 58.6429 211.254 58.773 211.16 58.8699C211.067 58.9668 210.938 59.0225 210.803 59.0247L192.747 59.3252C192.612 59.3275 192.482 59.2761 192.385 59.1824C192.288 59.0887 192.232 58.9603 192.23 58.8256C192.228 58.6908 192.279 58.5606 192.373 58.4638C192.467 58.3669 192.595 58.3112 192.73 58.3089Z" fill="#3F3D56"/>
<path d="M192.921 62.1179L210.977 61.8174C211.112 61.8151 211.242 61.8665 211.339 61.9602C211.436 62.0539 211.492 62.1823 211.494 62.317C211.496 62.4518 211.445 62.582 211.351 62.6788C211.257 62.7757 211.129 62.8314 210.994 62.8337L192.938 63.1342C192.803 63.1364 192.673 63.085 192.576 62.9913C192.479 62.8976 192.423 62.7693 192.421 62.6345C192.418 62.4997 192.47 62.3696 192.564 62.2727C192.657 62.1758 192.786 62.1201 192.921 62.1179Z" fill="#3F3D56"/>
<path d="M201.507 50.7253C197.925 50.7849 195.055 52.8274 195.096 55.2874L208.066 55.0715C208.025 52.6116 205.088 50.6657 201.507 50.7253Z" fill="#3F3D56"/>
<path d="M203.503 100.18C204.21 100.228 204.881 100.515 205.405 100.992C205.539 101.103 205.67 101.22 205.803 101.337C206.221 101.773 206.734 102.108 207.301 102.316C208.544 102.655 209.771 101.673 210.806 100.668L211.161 101.032C210.023 102.138 208.658 103.213 207.167 102.807C206.523 102.58 205.941 102.207 205.466 101.717C205.338 101.604 205.21 101.491 205.08 101.383C204.655 101.031 203.834 100.483 203.104 100.767C202.801 100.915 202.532 101.123 202.312 101.378C202.142 101.557 201.958 101.722 201.762 101.872C201.362 102.156 200.886 102.316 200.395 102.33C199.903 102.345 199.419 102.214 199.002 101.954C198.852 101.854 198.708 101.746 198.57 101.631C198.343 101.406 198.062 101.246 197.753 101.166C197.321 101.106 196.928 101.414 196.512 101.74C196.118 102.122 195.615 102.372 195.072 102.454C195.054 102.455 195.035 102.456 195.017 102.456C194.003 102.473 193.36 101.46 192.963 100.69L193.415 100.457C193.955 101.504 194.476 101.981 195.045 101.947C195.481 101.863 195.882 101.652 196.198 101.34C196.679 100.963 197.177 100.573 197.823 100.663C198.225 100.75 198.595 100.949 198.89 101.236C199.013 101.339 199.143 101.437 199.277 101.527C199.608 101.729 199.991 101.831 200.379 101.819C200.768 101.808 201.144 101.684 201.463 101.462C201.637 101.327 201.801 101.179 201.952 101.019C202.22 100.712 202.549 100.465 202.919 100.294C203.105 100.222 203.303 100.183 203.503 100.18Z" fill="#6C63FF"/>
<path d="M202.08 0H201.552V50.7045H202.08V0Z" fill="#EBEAFF"/>
<path d="M361.632 87.85C358.408 99.754 347.368 107.126 347.368 107.126C347.368 107.126 341.553 95.1987 344.777 83.2947C348 71.3907 359.04 64.0183 359.04 64.0183C359.04 64.0183 364.855 75.946 361.632 87.85Z" fill="#F3558E"/>
<path d="M332.309 87.85C335.532 99.754 346.572 107.126 346.572 107.126C346.572 107.126 352.387 95.1987 349.164 83.2947C345.94 71.3907 334.9 64.0183 334.9 64.0183C334.9 64.0183 329.085 75.946 332.309 87.85Z" fill="#F3558E"/>
<path d="M337.045 85.2917C345.89 93.8936 346.97 107.117 346.97 107.117C346.97 107.117 333.71 106.393 324.865 97.7915C316.021 89.1896 314.94 75.9665 314.94 75.9665C314.94 75.9665 328.2 76.6898 337.045 85.2917Z" fill="#27AE60"/>
<path d="M356.895 85.2917C348.051 93.8936 346.97 107.117 346.97 107.117C346.97 107.117 360.23 106.393 369.075 97.7915C377.92 89.1896 379 75.9665 379 75.9665C379 75.9665 365.74 76.6898 356.895 85.2917Z" fill="#27AE60"/>
<path d="M46.6914 226.922C43.4681 238.826 32.4275 246.199 32.4275 246.199C32.4275 246.199 26.613 234.271 29.8363 222.367C33.0596 210.463 44.1001 203.091 44.1001 203.091C44.1001 203.091 49.9147 215.018 46.6914 226.922Z" fill="#F3558E"/>
<path d="M17.3683 226.922C20.5916 238.826 31.6321 246.199 31.6321 246.199C31.6321 246.199 37.4467 234.271 34.2234 222.367C31.0001 210.463 19.9595 203.091 19.9595 203.091C19.9595 203.091 14.145 215.018 17.3683 226.922Z" fill="#F3558E"/>
<path d="M22.1047 224.364C30.9495 232.966 32.0298 246.189 32.0298 246.189C32.0298 246.189 18.7699 245.466 9.92512 236.864C1.08032 228.262 0 215.039 0 215.039C0 215.039 13.2599 215.762 22.1047 224.364Z" fill="#27AE60"/>
<path d="M41.9549 224.364C33.1101 232.966 32.0298 246.189 32.0298 246.189C32.0298 246.189 45.2897 245.466 54.1345 236.864C62.9793 228.262 64.0596 215.039 64.0596 215.039C64.0596 215.039 50.7997 215.762 41.9549 224.364Z" fill="#27AE60"/>
<path d="M257.775 116.953C261.86 116.953 265.171 113.644 265.171 109.563C265.171 105.482 261.86 102.174 257.775 102.174C253.69 102.174 250.379 105.482 250.379 109.563C250.379 113.644 253.69 116.953 257.775 116.953Z" fill="#2F2E41"/>
<path d="M249.85 106.396C249.851 104.574 250.525 102.816 251.744 101.46C252.963 100.104 254.64 99.2458 256.454 99.0505C255.421 98.9378 254.376 99.0438 253.387 99.3615C252.398 99.6793 251.487 100.202 250.713 100.895C249.94 101.588 249.321 102.436 248.897 103.384C248.474 104.332 248.255 105.358 248.255 106.396C248.255 107.434 248.474 108.461 248.897 109.409C249.321 110.357 249.94 111.205 250.713 111.898C251.487 112.591 252.398 113.113 253.387 113.431C254.376 113.749 255.421 113.855 256.454 113.742C254.64 113.547 252.963 112.689 251.744 111.333C250.525 109.977 249.851 108.219 249.85 106.396Z" fill="#2F2E41"/>
<path d="M250.379 109.563C250.379 109.563 249.23 114.841 256.408 116.953L250.379 109.563Z" fill="#6C63FF"/>
<path d="M260.834 159.756C274.548 159.756 285.665 148.649 285.665 134.948C285.665 121.247 274.548 110.141 260.834 110.141C247.12 110.141 236.003 121.247 236.003 134.948C236.003 148.649 247.12 159.756 260.834 159.756Z" fill="#2F2E41"/>
<path d="M274.55 218.876C274.23 219.141 273.911 219.402 273.588 219.659C266.975 225.013 259.814 229.653 252.223 233.501C251.773 233.728 251.323 233.955 250.87 234.177C250.15 234.531 249.424 234.877 248.697 235.215L235.969 230.977L236.115 227.931V227.919L236.668 216.302L236.857 212.329L274.55 218.876Z" fill="#A0616A"/>
<path d="M250.87 234.177C250.15 234.531 249.424 234.877 248.697 235.215C243.725 237.537 238.597 239.51 233.35 241.119C233.323 241.043 233.308 240.962 233.304 240.881L235.969 227.869L236.115 227.931L250.87 234.177Z" fill="#2F2E41"/>
<path d="M254.636 161.268C263.717 161.268 271.079 153.913 271.079 144.84C271.079 135.767 263.717 128.411 254.636 128.411C245.554 128.411 238.192 135.767 238.192 144.84C238.192 153.913 245.554 161.268 254.636 161.268Z" fill="#A0616A"/>
<path d="M267.968 145.728C267.968 145.728 270.635 159.048 275.524 162.156L248.414 194.124L238.192 184.356L245.747 171.036C245.747 171.036 254.191 166.152 251.525 159.492L267.968 145.728Z" fill="#A0616A"/>
<path d="M300.141 189.843C295.322 197.448 289.685 204.502 283.329 210.881C283.056 204.926 282.464 200.016 281.302 198.564C281.299 198.564 281.297 198.562 281.295 198.56L267.078 194.123C267.078 194.123 270.189 164.818 277.745 163.489C277.745 163.489 278.841 163.711 280.545 164.226C286.036 165.878 297.826 170.535 299.522 180.358C300.004 183.496 300.211 186.67 300.141 189.843Z" fill="#A0616A"/>
<path d="M245.747 171.036C245.747 171.036 232.414 170.592 223.97 181.248C215.526 191.904 195.083 199.896 195.083 199.896L143.974 219.876C143.974 219.876 134.641 203.448 128.864 209.22C123.086 214.992 139.53 229.644 147.085 227.868C154.64 226.092 200.416 212.328 200.416 212.328L236.859 195.9L245.747 171.036Z" fill="#A0616A"/>
<path d="M281.302 198.564L279.449 214.607C277.857 216.075 276.224 217.498 274.55 218.876C274.231 219.141 273.911 219.402 273.588 219.659C260.756 215.729 240.648 216.167 236.668 216.302C236.215 216.313 235.969 216.325 235.969 216.325L235.526 207.001C231.262 205.583 229.862 202.483 229.824 199.071C229.758 192.886 234.192 185.686 234.192 185.686C234.988 184.891 240.937 173.623 242.167 171.287C242.31 171.015 242.39 170.865 242.39 170.865L247.724 169.536C247.724 169.536 247.709 169.578 247.678 169.655C247.201 170.988 243.056 183.047 250.193 183.466C257.215 183.881 272.489 164.18 274.592 161.418C274.75 161.21 274.834 161.099 274.834 161.099L280.614 164.207C280.591 164.215 280.568 164.219 280.545 164.226C277.015 165.206 273.746 173.7 273.746 173.7C264.528 189.928 280.891 198.357 281.295 198.56C281.297 198.562 281.299 198.564 281.302 198.564Z" fill="#D0CDE1"/>
<path d="M255.529 125.556C246.776 125.556 239.68 129.692 239.68 134.793C239.68 137.076 241.106 139.162 243.46 140.773L246.512 138.565L245.682 142.025C246.026 142.184 246.378 142.338 246.744 142.481L251.303 137.168V143.695C252.7 143.919 254.114 144.031 255.529 144.03C264.282 144.03 271.379 139.894 271.379 134.793C271.379 129.692 264.283 125.556 255.529 125.556Z" fill="#2F2E41"/>
<path d="M287.996 128.497C292.081 128.497 295.392 125.188 295.392 121.107C295.392 117.026 292.081 113.718 287.996 113.718C283.911 113.718 280.599 117.026 280.599 121.107C280.599 125.188 283.911 128.497 287.996 128.497Z" fill="#2F2E41"/>
<path d="M280.071 117.94C280.071 116.118 280.746 114.36 281.965 113.004C283.184 111.648 284.861 110.79 286.675 110.595C286.412 110.566 286.147 110.551 285.883 110.551C284.877 110.549 283.882 110.753 282.957 111.149C282.033 111.545 281.199 112.125 280.507 112.853C279.815 113.582 279.279 114.444 278.931 115.387C278.584 116.33 278.432 117.334 278.486 118.337C278.54 119.34 278.798 120.322 279.245 121.222C279.691 122.122 280.317 122.922 281.084 123.572C281.85 124.223 282.741 124.71 283.703 125.005C284.664 125.299 285.675 125.395 286.675 125.286C284.861 125.091 283.184 124.233 281.965 122.877C280.746 121.521 280.071 119.763 280.071 117.94Z" fill="#2F2E41"/>
<path d="M280.599 121.107C280.599 121.107 279.451 126.385 286.629 128.497L280.599 121.107Z" fill="#6C63FF"/>
<path d="M271.746 146.394C272.455 146.394 273.03 145.101 273.03 143.507C273.03 141.914 272.455 140.621 271.746 140.621C271.037 140.621 270.462 141.914 270.462 143.507C270.462 145.101 271.037 146.394 271.746 146.394Z" fill="#A0616A"/>
<path d="M130.045 154.672L110.558 159.389L110.494 159.405L108.376 161.321L107.766 161.871L106.459 161.635L104.145 161.217L105.757 155.78L106.06 145.41L104.951 139.067L111.099 134.838C111.099 134.838 123.091 134.133 130.045 154.672Z" fill="#D0CDE1"/>
<path opacity="0.1" d="M110.558 159.389C110.293 159.952 110.847 159.581 110.544 160.16L107.723 161.066L106.459 161.635L104.145 161.217L105.757 155.78L106.06 145.41L104.951 139.067L111.099 134.838C111.099 134.838 117.697 144.173 110.558 159.389Z" fill="black"/>
<path d="M153.023 139.771C153.023 139.771 127.425 151.652 117.045 153.464C106.665 155.277 107.572 165.647 107.572 165.647L165.721 156.585C165.721 156.585 163.705 147.222 153.023 139.771Z" fill="#D0CDE1"/>
<path d="M103.641 137.758C103.641 137.758 108.075 148.531 103.137 161.922L108.882 164.539L111.099 161.922L111.149 161.67L105.052 161.116C105.052 161.116 110.091 147.625 105.959 138.261C105.959 138.261 105.052 136.247 103.641 137.758Z" fill="#6C63FF"/>
<path d="M188.194 217.599C165.519 212.565 144.406 222.986 144.406 222.986L144.349 222.934L135.941 215.435L103.087 161.871L111.099 161.922C133.371 148.631 164.713 150.444 164.713 150.444C178.217 165.748 188.194 217.599 188.194 217.599Z" fill="#3F3D56"/>
<path opacity="0.1" d="M144.349 222.934L135.941 215.434L103.087 161.871L111.099 161.922C111.099 161.922 143.031 204.056 144.349 222.934Z" fill="black"/>
<path d="M148.039 181.141C154.903 179.038 159.383 173.799 158.044 169.44C156.706 165.081 150.056 163.252 143.192 165.355C136.328 167.459 131.848 172.698 133.186 177.057C134.525 181.416 141.174 183.245 148.039 181.141Z" fill="#D0CDE1"/>
<path d="M10.6877 113.775C14.7229 113.775 17.994 110.507 17.994 106.476C17.994 102.444 14.7229 99.1764 10.6877 99.1764C6.65255 99.1764 3.38141 102.444 3.38141 106.476C3.38141 110.507 6.65255 113.775 10.6877 113.775Z" fill="#3F3D56"/>
<path d="M367.543 254C371.578 254 374.849 250.732 374.849 246.701C374.849 242.669 371.578 239.401 367.543 239.401C363.508 239.401 360.237 242.669 360.237 246.701C360.237 250.732 363.508 254 367.543 254Z" fill="#FAEE1C"/>
<path d="M42.6048 113.007C45.7904 113.007 48.3729 110.427 48.3729 107.244C48.3729 104.062 45.7904 101.481 42.6048 101.481C39.4191 101.481 36.8366 104.062 36.8366 107.244C36.8366 110.427 39.4191 113.007 42.6048 113.007Z" fill="#AF9FC0"/>
<path d="M367.543 113.007C370.729 113.007 373.311 110.427 373.311 107.244C373.311 104.062 370.729 101.481 367.543 101.481C364.358 101.481 361.775 104.062 361.775 107.244C361.775 110.427 364.358 113.007 367.543 113.007Z" fill="#FAEE1C"/>
<path d="M10.6877 251.695C13.8734 251.695 16.4558 249.115 16.4558 245.932C16.4558 242.75 13.8734 240.17 10.6877 240.17C7.50204 240.17 4.91956 242.75 4.91956 245.932C4.91956 249.115 7.50204 251.695 10.6877 251.695Z" fill="#FAEE1C"/>
</svg>
